<?xml version="1.0" encoding="UTF-8"?>
<svg xmlns="http://www.w3.org/2000/svg" id="filled_outline" data-name="filled outline" viewBox="0 0 512 512" width="512" height="512"><path d="M448,361.08a41.248,41.248,0,0,1-9.55,26.39L419.29,410.46,408,424v48l-8,8-24-24V432l-16,8-8-8,34.56006-46.08008L400,368l-65.13-65.13,38.22009-33.78L420,316l15.92993,15.92993A41.24784,41.24784,0,0,1,448,361.08Z" style="fill:#ffb089"/><polygon points="419.29 410.46 408 424 408 472 400 480 376 456 376 432 360 440 352 432 386.56 385.92 419.29 410.46" style="fill:#a82a74"/><rect x="144" y="312" width="344" height="32" style="fill:#c47220"/><path d="M408,361.08a41.248,41.248,0,0,1-9.55,26.39L379.29,410.46,368,424v48l-8,8-24-24V432l-16,8-8-8,34.56006-46.08008L360,368l-65.13-65.13,38.22009-33.78L380,316l15.92993,15.92993A41.24784,41.24784,0,0,1,408,361.08Z" style="fill:#ffbfa1"/><polygon points="380 316 344 352 294.87 302.87 333.09 269.09 380 316" style="fill:#b8407e"/><path d="M291.79811,204.20189l-46.7098,46.7098A72,72,0,0,1,194.17662,272H168l21.553,26.94122a26.13717,26.13717,0,0,1,2.96809,28.01664l0,.00005a26.13714,26.13714,0,0,0,20.13586,37.6242h.00006a38.23166,38.23166,0,0,1,32.74717,30.43858l3.42254,17.11269c2.273,11.36479,17.74,13.22376,22.64116,2.72123L326.93333,296V208Z" style="fill:#8098ab"/><polygon points="357.333 208 368 176 368 144 320 144 320 208 357.333 208" style="fill:#ffbfa1"/><path d="M352,296l26.34315,26.34315A19.31369,19.31369,0,0,0,392,328h0a19.31369,19.31369,0,0,0,13.65684-5.65685L416,312l5.40241-10.80483A24.60463,24.60463,0,0,0,424,290.19162v0a24.60469,24.60469,0,0,0-7.20655-17.39815L396,252Z" style="fill:#ffceb6"/><path d="M404,260l-14.34009,14.34-11.31982,11.31994L344,320l-53.83008-60.55A40.29231,40.29231,0,0,1,291.80005,204.2L302.6,193.4a32.10521,32.10521,0,0,1,41.96008-2.98l7.84985,5.89a23.97683,23.97683,0,0,1,9.55,20.78c-.01.26-.03.53-.05994.8h-.01Z" style="fill:#8ea5b8"/><path d="M312,184h13.94739a23.12136,23.12136,0,0,0,22.431-17.51361L352,152v-8H312Z" style="fill:#c47220"/><path d="M384,136v36.6863A11.31369,11.31369,0,0,1,372.6863,184h0a11.31372,11.31372,0,0,1-8-3.31371L352,168V136Z" style="fill:#ffceb6"/><polygon points="374.5 111.75 424 120 424 136 280 168 280 152 320 128 328 104 304 88 328 64 304 32 360 56 360 80 384 88 374.5 111.75" style="fill:#b8407e"/><polygon points="24 392 24 264 104 304 144 296 144 360 104 352 24 392" style="fill:#ffa100"/><polygon points="379.29 410.46 368 424 368 472 360 480 336 456 336 432 320 440 312 432 346.56 385.92 379.29 410.46" style="fill:#b8407e"/><path d="M488,304H428.91626A32.77089,32.77089,0,0,0,432,290.19141a32.39074,32.39074,0,0,0-9.5498-23.05469l-52.48487-52.4848a32.39649,32.39649,0,0,0-2.81091-12.26709l.43494.145L371.09937,192H384a7.99977,7.99977,0,0,0,8-8V151.30634l33.73535-7.49677A8.00044,8.00044,0,0,0,432,136V120a8,8,0,0,0-6.68457-7.89111l-39.69629-6.61621,5.80859-14.52149a7.99973,7.99973,0,0,0-4.89794-10.56055L368,74.23389V56a7.99956,7.99956,0,0,0-4.84863-7.353l-56-24A7.99976,7.99976,0,0,0,297.6001,36.7998L317.437,63.24951,298.34326,82.34326a7.99978,7.99978,0,0,0,1.21924,12.313l18.916,12.61084-5.13233,15.39551-37.46191,22.47754A8.0001,8.0001,0,0,0,272,152v16a8.00021,8.00021,0,0,0,9.73535,7.80957L304,170.86188v9.82464l-17.8584,17.8584-46.71,46.71A63.58273,63.58273,0,0,1,194.17676,264H168a8.00013,8.00013,0,0,0-6.24707,12.99756l21.55322,26.94189c.01581.01978.02924.04077.04492.06055H152v-8a8.00053,8.00053,0,0,0-9.56885-7.84473l-37.30859,7.46192L27.57764,256.84473A7.99974,7.99974,0,0,0,16,264V392a7.99971,7.99971,0,0,0,11.57764,7.15527l77.54492-38.77246,37.30859,7.46192A8.00053,8.00053,0,0,0,152,360v-8h32.499c.39575.9314.81983,1.85376,1.30182,2.75439A34.18386,34.18386,0,0,0,211.66455,372.52a30.19384,30.19384,0,0,1,25.895,24.06934l3.42236,17.11279a19.71085,19.71085,0,0,0,17.2251,15.93457,20.97567,20.97567,0,0,0,2.51367.15185,19.66771,19.66771,0,0,0,17.99659-11.55127L309.62817,352h23.05835L349.437,368.75049,305.6001,427.2002a7.99932,7.99932,0,0,0,.74316,10.45654l8,8a8.00111,8.00111,0,0,0,9.23438,1.49853L328,444.94434V456a7.99877,7.99877,0,0,0,2.34326,5.65674l24,24a7.99945,7.99945,0,0,0,11.31348,0l8-8A7.99877,7.99877,0,0,0,376,472v-4.68652l18.34326,18.34326a7.99945,7.99945,0,0,0,11.31348,0l8-8A7.99877,7.99877,0,0,0,416,472V426.89648l28.59082-34.30957A49.10306,49.10306,0,0,0,455.146,352H488a7.99977,7.99977,0,0,0,8-8V312A7.99977,7.99977,0,0,0,488,304Zm-73.75293-6.38232-.43872.87719L395.31348,280,404,271.31348l7.13672,7.13672A16.496,16.496,0,0,1,416,290.19141,16.68665,16.68665,0,0,1,414.24707,297.61768Zm-21.94775,84.72607-14.29786,17.15759-20.24169-15.18127,8.64013-11.52027a7.99932,7.99932,0,0,0-.74316-10.45654L355.31348,352l20.97375-20.97375a27.01155,27.01155,0,0,0,12.16467,4.73913l1.81763,1.81763a33.22255,33.22255,0,0,1,2.02979,44.76074ZM327.56848,313.5564l10.452,11.75854a8.00043,8.00043,0,0,0,5.74463,2.68164c.07861.00244.15674.00342.23535.00342a7.99963,7.99963,0,0,0,5.65625-2.34326L360,315.31348,364.68652,320,344,340.68652l-19.83569-19.83569ZM400,316.68652a11.31426,11.31426,0,0,1-16,0L371.31348,304,384,291.31348,404.68652,312Zm-34.67126-84.04431L392.68652,260,384,268.68652l-24.1991-24.19909Zm-13.8949-53.89483,5.41333,5.41326-1.46,4.37989-7.47095-5.6034A31.05,31.05,0,0,0,351.43384,178.74738ZM376,176h-4.68652l-13.65369-13.65369.90222-3.60937L376,154.86188Zm-88-19.4707,36.11572-21.66944a8.00018,8.00018,0,0,0,3.47364-4.33007l8-24a7.999,7.999,0,0,0-3.15186-9.186L316.55713,86.75684l17.09961-17.1001a7.99932,7.99932,0,0,0,.74316-10.45654l-6.043-8.05762L352,61.27539V80a8.00011,8.00011,0,0,0,5.47021,7.58936l15.95118,5.31689-12.84912,32.12256,14.85546,5.94238,4.1084-10.27148L416,126.77686v2.80566L288,158.02686Zm53.09924,6.08831-.48205,1.92829A15.09936,15.09936,0,0,1,325.94727,176H320v-8.69366ZM315.31348,192h10.63379a31.27165,31.27165,0,0,0,6.4823-.67773l15.18176,11.38623a16.07078,16.07078,0,0,1,4.89892,19.56591l-4.748,10.17432L336,220.68652V208H320v16a7.99877,7.99877,0,0,0,2.34326,5.65674L372.68652,280l-28.34375,28.34375-48.18847-54.2124a32.2808,32.2808,0,0,1,1.30078-44.273ZM32,276.94434l64,31.99975v38.11182L32,379.05566ZM136,350.2417l-24-4.80017V310.55847l24-4.80017ZM152,320h34.6416a17.99023,17.99023,0,0,1-1.27588,3.38037A34.07381,34.07381,0,0,0,181.88477,336H152Zm112.21826,91.47168a3.99989,3.99989,0,0,1-7.54687-.90723L253.249,393.45166a46.174,46.174,0,0,0-39.60009-36.80811,18.13716,18.13716,0,0,1-13.97266-26.10791,34.236,34.236,0,0,0-3.87647-36.59179L184.645,280h9.53174a79.47461,79.47461,0,0,0,56.56836-23.43164l21.32885-21.3288a48.2242,48.2242,0,0,0,12.12134,29.52167l31.79505,35.76965ZM360,424v44.686l-16-16V432a7.99974,7.99974,0,0,0-11.57764-7.15527l-8.08935,4.04443,23.8269-31.76941,19.58545,14.68909-5.89136,7.06958A8.00237,8.00237,0,0,0,360,424Zm41.854-5.12158A8.00237,8.00237,0,0,0,400,424v44.68652l-16-16V432a7.9491,7.9491,0,0,0-5.84192-7.69324l17.7887-21.3468,11.79858,8.84888ZM440,361.0752a33.28285,33.28285,0,0,1-7.70068,21.26855l-14.29786,17.15759-11.85571-8.89172A49.22887,49.22887,0,0,0,415.15894,352H438.7334A33.02943,33.02943,0,0,1,440,361.0752ZM480,336H409.1521a49.0842,49.0842,0,0,0-2.731-4.1145A27.51415,27.51415,0,0,0,411.31348,328l8-8H480Z"/></svg>
